<svg xmlns="http://www.w3.org/2000/svg" viewBox="0 0 770 710" role="img" aria-labelledby="title">
  <title id="title">2024-Q32 相图重绘</title>
  <style>
    .ink,.dash{fill:none;stroke:#252525;stroke-width:2.8;stroke-linejoin:round;stroke-linecap:round}
    .dash{stroke-dasharray:7 6}
    text{font-family:"Noto Sans SC","Microsoft YaHei",Arial,sans-serif;font-size:27px;fill:#202020}
  </style>
  <rect width="100%" height="100%" fill="white"/>
  <rect x="125" y="35" width="575" height="542" class="ink"/>
  <path d="M125 106 C264 109 345 154 381 307 C394 262 421 238 446 246 C459 249 466 270 469 306 C516 311 539 352 551 426 C610 423 665 463 700 493" class="ink"/>
  <path d="M477 426 C510 474 624 513 700 493" class="ink"/>
  <path d="M477 426 C444 479 461 524 508 577" class="ink"/>
  <path d="M125 188 L332 188" class="ink"/>
  <path d="M267 188 L267 577" class="ink"/>
  <path d="M267 307 L469 307" class="ink"/>
  <path d="M267 426 L551 426" class="ink"/>
  <path d="M301 105 L301 505" class="dash"/>
  <path d="M581 125 L581 541" class="dash"/>
  <text x="206" y="88" text-anchor="middle" font-weight="normal" font-size="28">1</text>
  <text x="168" y="231" text-anchor="middle" font-weight="normal" font-size="28">2</text>
  <text x="165" y="387" text-anchor="middle" font-weight="normal" font-size="28">3</text>
  <text x="338" y="282" text-anchor="middle" font-weight="normal" font-size="28">4</text>
  <text x="427" y="289" text-anchor="middle" font-weight="normal" font-size="28">5</text>
  <text x="378" y="387" text-anchor="middle" font-weight="normal" font-size="28">6</text>
  <text x="355" y="505" text-anchor="middle" font-weight="normal" font-size="28">7</text>
  <text x="580" y="552" text-anchor="middle" font-weight="normal" font-size="28">8</text>
  <text x="627" y="486" text-anchor="middle" font-weight="normal" font-size="28">9</text>
  <text x="42" y="45" text-anchor="middle" font-weight="normal" font-size="34">t/°C</text>
  <text x="87" y="110" text-anchor="middle" font-weight="normal" font-size="30">P</text>
  <text x="301" y="95" text-anchor="middle" font-weight="normal" font-size="34">a</text>
  <text x="581" y="109" text-anchor="middle" font-weight="normal" font-size="34">b</text>
  <text x="124" y="625" text-anchor="middle" font-weight="normal" font-size="34">A</text>
  <text x="267" y="625" text-anchor="middle" font-weight="normal" font-size="34">C</text>
  <text x="700" y="625" text-anchor="middle" font-weight="normal" font-size="34">B</text>
  <path d="M342 640 L466 640" class="ink"/><path d="M456 635 L466 640 L456 645" class="ink"/>
  <text x="399" y="687" text-anchor="middle" font-weight="normal" font-size="35">W_B</text>
</svg>
